<svg xmlns="http://www.w3.org/2000/svg" viewBox="214.21 174.94 307.57 69.16">
  <g>
    <path d="M 517.79 240.09 L 504.70 240.09 L 501.83 230.25 L 500.78 226.68 L 498.48 218.80 L 496.36 211.54 L 492.90 199.68 L 492.18 197.24 L 490.93 192.94 L 470.09 192.94 L 468.91 197.00 L 468.12 199.68 L 464.66 211.50 L 462.53 218.80 L 487.68 218.80 L 489.98 226.68 L 460.23 226.68 L 459.18 230.25 L 456.30 240.09 L 443.20 240.09 L 446.08 230.25 L 447.13 226.68 L 449.43 218.80 L 455.02 199.68 L 456.99 192.94 C 459.30 185.05 465.78 179.07 474.18 178.95 C 474.27 178.94 474.35 178.94 474.44 178.94 L 486.84 178.94 C 494.41 179.02 500.85 183.84 503.32 190.58 C 503.32 190.62 503.33 190.64 503.34 190.66 L 503.90 192.56 C 503.94 192.69 503.97 192.82 503.99 192.94 L 504.02 192.94 L 505.99 199.68 L 511.57 218.80 L 513.87 226.68 L 514.92 230.25 L 517.79 240.09 Z" fill="#FFFFFF" fill-rule="nonzero"/><path d="M 288.12 178.94 L 282.06 199.68 L 276.47 218.80 L 274.03 226.68 C 273.72 227.93 273.27 229.12 272.71 230.25 C 269.87 235.97 264.04 239.92 257.27 240.09 C 257.23 240.10 257.18 240.10 257.14 240.09 L 249.16 240.09 C 249.09 240.10 249.03 240.10 248.97 240.09 C 242.20 239.92 236.37 235.97 233.52 230.25 C 232.96 229.12 232.52 227.93 232.21 226.68 L 232.16 226.68 L 229.85 218.80 L 224.27 199.68 L 218.21 178.94 L 231.30 178.94 L 237.36 199.68 L 239.65 207.53 L 241.40 213.54 L 242.94 218.80 L 244.42 223.85 C 244.91 225.53 246.44 226.68 248.19 226.68 L 258.12 226.68 C 259.87 226.68 261.40 225.53 261.89 223.85 L 263.37 218.80 L 264.88 213.62 L 266.65 207.58 L 268.96 199.68 L 275.02 178.94 L 288.12 178.94 Z" fill="#FFFFFF" fill-rule="nonzero"/><path d="M 366.38 240.09 L 353.29 240.09 L 350.41 230.25 L 349.37 226.68 L 347.07 218.80 L 344.94 211.52 L 341.48 199.68 L 340.74 197.14 L 340.33 195.77 C 339.84 194.09 338.31 192.94 336.56 192.94 L 321.77 192.94 C 320.03 192.94 318.49 194.09 318.00 195.77 L 317.47 197.58 L 316.86 199.68 L 313.37 211.60 L 311.27 218.80 L 350.81 218.80 L 353.11 226.68 L 308.97 226.68 L 307.92 230.25 L 305.04 240.09 L 291.94 240.09 L 294.82 230.25 L 295.87 226.68 L 298.17 218.80 L 303.76 199.68 L 305.51 193.68 L 305.73 192.94 L 306.08 191.74 C 306.81 189.25 307.98 186.89 309.69 184.94 C 312.93 181.28 317.65 178.97 322.92 178.94 L 335.42 178.94 C 343.29 179.03 349.93 184.25 352.15 191.41 C 352.23 191.66 352.30 191.92 352.37 192.17 C 352.43 192.43 352.49 192.68 352.55 192.94 L 352.59 192.94 L 354.56 199.68 L 360.16 218.80 L 362.46 226.68 L 363.49 230.25 L 366.38 240.09 Z" fill="#FFFFFF" fill-rule="nonzero"/><path d="M 517.79 240.09 L 504.70 240.09 L 501.83 230.25 L 500.78 226.68 L 498.48 218.80 L 496.36 211.54 L 492.90 199.68 L 492.18 197.24 L 491.75 195.77 C 491.26 194.09 489.73 192.94 487.98 192.94 L 473.04 192.94 C 471.29 192.94 469.76 194.09 469.27 195.77 L 468.91 197.00 L 468.12 199.68 L 464.66 211.50 L 462.53 218.80 L 502.72 218.80 L 505.02 226.68 L 460.23 226.68 L 459.18 230.25 L 456.30 240.09 L 443.20 240.09 L 446.08 230.25 L 447.13 226.68 L 449.43 218.80 L 455.02 199.68 L 456.99 192.94 C 459.30 185.05 465.78 179.07 474.18 178.95 C 474.27 178.94 474.35 178.94 474.44 178.94 L 486.84 178.94 C 494.41 179.02 500.85 183.84 503.32 190.58 C 503.32 190.62 503.33 190.64 503.34 190.66 L 503.90 192.56 C 503.94 192.69 503.97 192.82 503.99 192.94 L 504.02 192.94 L 505.99 199.68 L 511.57 218.80 L 513.87 226.68 L 514.92 230.25 L 517.79 240.09 Z" fill="#FFFFFF" fill-rule="nonzero"/><path d="M 438.22 240.09 L 428.89 240.09 C 425.55 240.09 422.37 238.61 420.22 236.06 L 415.32 230.25 L 412.32 226.68 L 405.68 218.80 L 405.03 218.02 L 404.37 218.80 L 397.70 226.68 L 394.68 230.25 L 389.77 236.07 C 387.61 238.62 384.44 240.09 381.10 240.09 L 371.72 240.09 L 380.03 230.25 L 383.05 226.68 L 389.72 218.80 L 397.71 209.34 L 389.57 199.68 L 383.88 192.94 L 372.08 178.94 L 381.41 178.94 C 384.76 178.94 387.93 180.42 390.09 182.97 L 398.49 192.94 L 404.17 199.68 L 405.03 200.69 L 412.34 209.37 L 420.28 218.80 L 426.92 226.68 L 429.93 230.25 L 438.22 240.09 Z" fill="#FFFFFF" fill-rule="nonzero"/><path d="M 438.06 178.94 L 426.23 192.94 L 424.33 195.18 C 421.91 198.04 418.36 199.68 414.62 199.68 L 405.87 199.68 L 411.58 192.94 L 419.60 183.45 C 422.02 180.59 425.57 178.94 429.32 178.94 L 438.06 178.94 Z" fill="#03CE13" fill-rule="nonzero"/>
  </g>
</svg>