<svg xmlns="http://www.w3.org/2000/svg" viewBox="105.48 455.62 151.29 37.25">
  <g>
    <path d="M 252.77 488.87 L 246.51 488.87 L 245.13 484.16 L 244.63 482.45 L 243.53 478.68 L 242.52 475.21 L 240.86 469.54 L 240.52 468.37 L 239.92 466.32 L 229.95 466.32 L 229.39 468.26 L 229.01 469.54 L 227.36 475.19 L 226.34 478.68 L 238.37 478.68 L 239.47 482.45 L 225.24 482.45 L 224.73 484.16 L 223.36 488.87 L 217.09 488.87 L 218.47 484.16 L 218.97 482.45 L 220.07 478.68 L 222.75 469.54 L 223.69 466.32 C 224.79 462.54 227.89 459.68 231.91 459.63 C 231.95 459.62 231.99 459.62 232.04 459.62 L 237.96 459.62 C 241.59 459.66 244.67 461.96 245.85 465.19 C 245.85 465.20 245.85 465.22 245.86 465.23 L 246.13 466.14 C 246.14 466.20 246.16 466.26 246.17 466.32 L 246.18 466.32 L 247.12 469.54 L 249.79 478.68 L 250.89 482.45 L 251.39 484.16 L 252.77 488.87 Z" fill="#011A38" fill-rule="nonzero"/><path d="M 142.91 459.62 L 140.01 469.54 L 137.34 478.68 L 136.17 482.45 C 136.03 483.05 135.81 483.62 135.54 484.16 C 134.18 486.89 131.40 488.79 128.16 488.87 C 128.14 488.87 128.12 488.87 128.09 488.87 L 124.28 488.87 C 124.25 488.87 124.21 488.87 124.19 488.87 C 120.95 488.79 118.16 486.89 116.80 484.16 C 116.53 483.62 116.32 483.05 116.17 482.45 L 116.14 482.45 L 115.04 478.68 L 112.37 469.54 L 109.48 459.62 L 115.74 459.62 L 118.63 469.54 L 119.73 473.30 L 120.57 476.17 L 121.30 478.68 L 122.01 481.10 C 122.24 481.90 122.98 482.45 123.81 482.45 L 128.56 482.45 C 129.40 482.45 130.13 481.90 130.37 481.10 L 131.07 478.68 L 131.80 476.20 L 132.64 473.32 L 133.75 469.54 L 136.65 459.62 L 142.91 459.62 Z" fill="#011A38" fill-rule="nonzero"/><path d="M 180.35 488.87 L 174.09 488.87 L 172.71 484.16 L 172.21 482.45 L 171.11 478.68 L 170.09 475.20 L 168.43 469.54 L 168.08 468.33 L 167.89 467.67 C 167.65 466.87 166.92 466.32 166.08 466.32 L 159.01 466.32 C 158.18 466.32 157.44 466.87 157.21 467.67 L 156.95 468.53 L 156.66 469.54 L 154.99 475.24 L 153.99 478.68 L 172.62 478.68 L 173.72 482.45 L 152.88 482.45 L 152.38 484.16 L 151.01 488.87 L 144.74 488.87 L 146.12 484.16 L 146.62 482.45 L 147.72 478.68 L 150.39 469.54 L 151.23 466.67 L 151.34 466.32 L 151.51 465.74 C 151.86 464.55 152.41 463.42 153.23 462.49 C 154.78 460.74 157.04 459.63 159.56 459.62 L 165.54 459.62 C 169.30 459.66 172.48 462.16 173.54 465.59 C 173.58 465.71 173.61 465.83 173.64 465.95 C 173.68 466.07 173.70 466.19 173.73 466.32 L 173.75 466.32 L 174.70 469.54 L 177.37 478.68 L 178.47 482.45 L 178.97 484.16 L 180.35 488.87 Z" fill="#011A38" fill-rule="nonzero"/><path d="M 252.77 488.87 L 246.51 488.87 L 245.13 484.16 L 244.63 482.45 L 243.53 478.68 L 242.52 475.21 L 240.86 469.54 L 240.52 468.37 L 240.31 467.67 C 240.08 466.87 239.35 466.32 238.51 466.32 L 231.36 466.32 C 230.53 466.32 229.79 466.87 229.56 467.67 L 229.39 468.26 L 229.01 469.54 L 227.36 475.19 L 226.34 478.68 L 245.28 478.68 L 246.38 482.45 L 225.24 482.45 L 224.73 484.16 L 223.36 488.87 L 217.09 488.87 L 218.47 484.16 L 218.97 482.45 L 220.07 478.68 L 222.75 469.54 L 223.69 466.32 C 224.79 462.54 227.89 459.68 231.91 459.63 C 231.95 459.62 231.99 459.62 232.04 459.62 L 237.96 459.62 C 241.59 459.66 244.67 461.96 245.85 465.19 C 245.85 465.20 245.85 465.22 245.86 465.23 L 246.13 466.14 C 246.14 466.20 246.16 466.26 246.17 466.32 L 246.18 466.32 L 247.12 469.54 L 249.79 478.68 L 250.89 482.45 L 251.39 484.16 L 252.77 488.87 Z" fill="#011A38" fill-rule="nonzero"/><path d="M 214.71 488.87 L 210.25 488.87 C 208.65 488.87 207.13 488.16 206.10 486.94 L 203.76 484.16 L 202.32 482.45 L 199.14 478.68 L 198.83 478.31 L 198.52 478.68 L 195.33 482.45 L 193.89 484.16 L 191.53 486.94 C 190.50 488.16 188.99 488.87 187.39 488.87 L 182.90 488.87 L 186.88 484.16 L 188.32 482.45 L 191.51 478.68 L 195.33 474.16 L 191.44 469.54 L 188.72 466.32 L 183.08 459.62 L 187.54 459.62 C 189.14 459.62 190.66 460.33 191.69 461.55 L 195.70 466.32 L 198.42 469.54 L 198.83 470.02 L 202.33 474.17 L 206.13 478.68 L 209.30 482.45 L 210.74 484.16 L 214.71 488.87 Z" fill="#011A38" fill-rule="nonzero"/><path d="M 214.63 459.62 L 208.97 466.32 L 208.07 467.39 C 206.91 468.75 205.21 469.54 203.42 469.54 L 199.23 469.54 L 201.96 466.32 L 205.80 461.78 C 206.96 460.41 208.66 459.62 210.45 459.62 L 214.63 459.62 Z" fill="#03CE13" fill-rule="nonzero"/>
  </g>
</svg>