<svg xmlns="http://www.w3.org/2000/svg" viewBox="0 0 64 64" width="64" height="64">
  <rect width="64" height="64" rx="14" fill="#011a38"/>
  <g transform="translate(14.1,14.4)">
    <path fill="#0066E1" d="M5.44 13.91 5.60 14.15 8.95 15.11 11.75 16.63 12.07 16.63 13.99 15.11 15.67 13.43 17.90 10.47 19.26 12.47 21.74 15.11 24.54 17.27 27.10 18.62 30.85 19.90 33.65 20.22 34.53 19.82 35.25 19.10 35.81 17.82 35.57 16.31 34.53 15.11 33.73 14.71 33.01 14.71 30.69 14.07 27.90 12.79 25.74 11.19 24.30 9.75 22.86 7.83 21.82 5.91 21.18 4.08 20.86 2.16 20.46 1.44 19.26 0.32 18.30 0.00 17.43 0.00 16.55 0.32 15.43 1.20 15.03 1.84 14.71 3.60 13.43 6.87 11.27 9.91 9.59 11.51 7.83 12.79Z"/>
    <path fill="#03CE14" d="M0.00 17.27 0.08 18.70 0.40 19.34 1.20 20.14 1.92 20.54 4.00 20.86 5.91 21.50 7.83 22.46 9.59 23.74 11.51 25.58 12.79 27.26 13.75 29.02 14.71 31.65 15.03 33.41 16.15 34.69 17.35 35.25 18.38 35.25 19.26 34.93 20.46 33.81 20.86 33.09 21.18 31.17 21.82 29.41 22.78 27.58 24.62 25.18 27.02 23.10 30.21 21.34 30.05 21.10 26.70 20.14 23.82 18.62 22.46 19.58 19.26 22.86 18.14 24.62 17.74 24.78 15.99 22.22 14.07 20.22 11.11 17.98 7.91 16.39 5.84 15.67 2.56 15.03 1.44 15.35 0.40 16.31Z"/>
  </g>
</svg>
