<svg xmlns="http://www.w3.org/2000/svg" viewBox="0 0 64 64" width="64" height="64">
  <rect width="64" height="64" rx="14" fill="#011a38"/>
  <g transform="translate(12,12.28) scale(0.1375)">
    <path fill="#0066E1" d="M 43 114 L 72 122 L 97 135 L 126 110 L 146 84 L 163 108 L 180 125 L 202 141 L 219 150 L 243 159 L 265 164 L 274 164 L 283 160 L 291 147 L 291 137 L 284 125 L 277 121 L 247 114 L 230 106 L 214 95 L 198 80 L 184 61 L 177 47 L 166 11 L 159 4 L 148 0 L 138 1 L 129 6 L 124 12 L 114 47 L 105 64 L 91 82 L 73 98 L 59 107Z"/>
    <path fill="#03CE14" d="M 0 140 L 1 154 L 8 163 L 55 178 L 73 189 L 88 202 L 100 216 L 113 238 L 124 275 L 130 282 L 142 287 L 156 285 L 165 278 L 170 267 L 172 254 L 177 240 L 195 211 L 221 187 L 247 174 L 216 164 L 194 152 L 167 175 L 145 203 L 131 183 L 113 164 L 90 147 L 69 136 L 47 128 L 18 123 L 7 128Z"/>
  </g>
</svg>
